<svg xmlns="http://www.w3.org/2000/svg" viewBox="0 0 24 24" fill="#f97316">
  <path d="M12 23c-4.97 0-9-4.03-9-9 0-2.5 1-4.75 2.62-6.38C7.62 5.62 9.5 4.5 11 3c0 2.5 1.5 4 3 5.5C15.5 10 16 11.5 16 13c0 2.21-1.79 4-4 4s-4-1.79-4-4c0-.56.12-1.09.32-1.57.43.99 1.43 1.57 2.68 1.57 1.66 0 3-1.34 3-3 0-1.16-.64-2.17-1.57-2.71C13.97 8.5 15 10.16 15 12c0 1.66-1.34 3-3 3s-3-1.34-3-3c0-1.25.76-2.31 1.84-2.77C10.32 9.74 10 10.35 10 11c0 1.1.9 2 2 2s2-.9 2-2c0-.95-.52-1.77-1.29-2.21C13.8 9.62 15 11.18 15 13c0 1.66-1.34 3-3 3z"/>
</svg>
